HIERARCHY
ROOT Hips
{
	OFFSET 0.000000 0.000000 0.000000
	CHANNELS 6 Xposition Yposition Zposition Zrotation Yrotation Xrotation 
	JOINT LeftUpLeg_virtual
	{
		OFFSET 0.000000 0.000000 0.000000
		CHANNELS 3 Zrotation Yrotation Xrotation
		JOINT LeftUpLeg
		{
			OFFSET 8.479694 -4.795517 -0.379053
			CHANNELS 3 Zrotation Yrotation Xrotation
			JOINT LeftLeg
			{
				OFFSET 0.485052 -32.551468 0.112863
				CHANNELS 3 Zrotation Yrotation Xrotation
				JOINT LeftFoot
				{
					OFFSET 0.438033 -32.635670 -3.012641
					CHANNELS 3 Zrotation Yrotation Xrotation
					JOINT LeftToeBase
					{
						OFFSET 0.970169 -13.225353 11.864223
						CHANNELS 3 Zrotation Yrotation Xrotation
						End Site
						{
							OFFSET 0.000000 0.000000 0.000000
						}
					}
				}
			}
		}
	}
	JOINT RightUpLeg_virtual
	{
		OFFSET 0.000000 0.000000 0.000000
		CHANNELS 3 Zrotation Yrotation Xrotation
		JOINT RightUpLeg
		{
			OFFSET -8.479694 -4.795517 -0.379053
			CHANNELS 3 Zrotation Yrotation Xrotation
			JOINT RightLeg
			{
				OFFSET -0.484100 -32.551483 0.112903
				CHANNELS 3 Zrotation Yrotation Xrotation
				JOINT RightFoot
				{
					OFFSET -0.438985 -32.635651 -3.012681
					CHANNELS 3 Zrotation Yrotation Xrotation
					JOINT RightToeBase
					{
						OFFSET -0.970169 -13.225354 11.864223
						CHANNELS 3 Zrotation Yrotation Xrotation
						End Site
						{
							OFFSET 0.000000 0.000000 0.000000
						}
					}
				}
			}
		}
	}
	JOINT Spine_virtual
	{
		OFFSET 0.000000 0.000000 0.000000
		CHANNELS 3 Zrotation Yrotation Xrotation
		JOINT Spine
		{
			OFFSET 0.000000 7.722015 1.166203
			CHANNELS 3 Zrotation Yrotation Xrotation
			JOINT Spine1
			{
				OFFSET 0.000000 12.024086 0.248766
				CHANNELS 3 Zrotation Yrotation Xrotation
				JOINT Spine2
				{
					OFFSET -0.000000 11.503036 -0.491240
					CHANNELS 3 Zrotation Yrotation Xrotation
					JOINT Neck_virtual
					{
						OFFSET 0.000000 0.000000 0.000000
						CHANNELS 3 Zrotation Yrotation Xrotation
						JOINT Neck
						{
							OFFSET 0.000000 18.430687 -3.123054
							CHANNELS 3 Zrotation Yrotation Xrotation
							JOINT Head
							{
								OFFSET -0.000000 9.051071 1.034021
								CHANNELS 3 Zrotation Yrotation Xrotation
								End Site
								{
									OFFSET 0.000000 0.000000 0.000000
								}
							}
						}
					}
					JOINT LeftShoulder_virtual
					{
						OFFSET 0.000000 0.000000 0.000000
						CHANNELS 3 Zrotation Yrotation Xrotation
						JOINT LeftShoulder
						{
							OFFSET 6.197824 13.665230 -4.064723
							CHANNELS 3 Zrotation Yrotation Xrotation
							JOINT LeftArm
							{
								OFFSET 7.778132 -0.187073 -1.709282
								CHANNELS 3 Zrotation Yrotation Xrotation
								JOINT LeftForeArm
								{
									OFFSET 21.954697 0.000000 -2.041093
									CHANNELS 3 Zrotation Yrotation Xrotation
									JOINT LeftHand
									{
										OFFSET 22.992908 0.000000 -0.870901
										CHANNELS 3 Zrotation Yrotation Xrotation
										End Site
										{
											OFFSET 0.000000 0.000000 0.000000
										}
									}
								}
							}
						}
					}
					JOINT RightShoulder_virtual
					{
						OFFSET 0.000000 0.000000 0.000000
						CHANNELS 3 Zrotation Yrotation Xrotation
						JOINT RightShoulder
						{
							OFFSET -6.197824 13.665230 -4.064723
							CHANNELS 3 Zrotation Yrotation Xrotation
							JOINT RightArm
							{
								OFFSET -7.778132 -0.187073 -1.709282
								CHANNELS 3 Zrotation Yrotation Xrotation
								JOINT RightForeArm
								{
									OFFSET -21.954697 0.000000 -2.041093
									CHANNELS 3 Zrotation Yrotation Xrotation
									JOINT RightHand
									{
										OFFSET -22.992908 0.000000 -0.870901
										CHANNELS 3 Zrotation Yrotation Xrotation
										End Site
										{
											OFFSET 0.000000 0.000000 0.000000
										}
									}
								}
							}
						}
					}
				}
			}
		}
	}
}
MOTION
Frames: 4
Frame Time: 0.033333
-20.254116 82.001976 -35.449524 -179.941443 -12.378333 179.986427 -4.131964 -0.025529 13.623848 1.827422 1.361247 -22.391710 4.462458 3.945837 30.253261 2.448377 -7.420170 -10.244503 0.000000 0.000000 0.000000 -0.807493 -0.519022 14.867102 -3.041871 0.058911 -24.473418 -0.746124 6.863138 29.171451 12.903616 3.633803 -6.715917 0.000000 0.000000 0.000000 2.159169 0.850130 3.519647 0.604715 -0.751089 -6.120948 1.648171 -3.601504 6.646319 -0.021130 -0.006930 -0.009321 1.675342 -2.809949 7.849755 -8.020319 4.561668 -14.356177 0.000000 0.000000 0.000000 3.525925 -2.099353 4.824464 15.091422 6.580717 -5.899280 36.037393 -36.353173 -48.833032 2.751071 -53.018790 1.254008 0.000000 0.000000 0.000000 -1.039936 -0.604186 4.174655 27.960339 0.483356 -0.434254 44.354436 13.346041 -13.117218 1.308678 30.357763 -2.599339 0.000000 0.000000 0.000000 
-20.003010 82.082817 -35.780293 -179.949270 -13.031665 -179.926102 -4.154489 0.407586 13.992676 2.373580 0.960749 -22.722984 4.251532 3.662723 30.087294 2.282368 -7.696285 -10.007619 0.000000 0.000000 0.000000 -0.395455 -0.109649 15.027137 -2.966830 -0.930875 -24.620981 -0.691779 6.704672 29.674676 12.563439 3.624197 -6.831524 0.000000 0.000000 0.000000 2.233753 1.261073 3.808359 0.899678 -0.864534 -6.077983 1.871769 -3.676211 6.643703 0.033950 -0.072077 0.022006 1.798441 -2.863420 7.963978 -8.100257 4.579238 -14.915554 0.000000 0.000000 0.000000 3.686531 -2.051004 5.095752 14.997586 7.138781 -6.032881 39.588579 -36.391009 -49.686232 2.772666 -49.743479 2.024564 0.000000 0.000000 0.000000 -0.948191 -0.526755 4.428678 27.582310 0.538266 -0.696814 44.175314 13.407193 -13.768978 1.541090 30.979529 -2.475011 0.000000 0.000000 0.000000 
-19.789152 82.194542 -36.041149 179.935692 -13.465542 -179.837733 -4.014489 0.670579 14.184820 2.496423 0.796050 -22.675215 3.940704 3.319662 29.457786 2.210250 -7.707987 -9.498694 0.000000 0.000000 0.000000 0.145119 0.542316 15.255712 -3.267381 -1.917753 -24.811205 -0.496883 6.365584 30.022496 12.323927 3.566227 -6.887464 0.000000 0.000000 0.000000 2.348222 1.703576 4.190157 1.075808 -0.823954 -5.982664 2.020182 -3.634257 6.629998 0.026431 0.008391 0.031253 1.995528 -2.849687 7.984228 -8.084401 4.523314 -15.308368 0.000000 0.000000 0.000000 3.908958 -2.134996 5.285662 13.731892 7.840372 -6.529108 42.424836 -36.338143 -55.199427 3.319009 -45.746336 1.574921 0.000000 0.000000 0.000000 -0.758917 -0.604688 4.584453 27.299846 0.621395 -0.969607 43.480510 13.345234 -14.381211 1.656209 31.249724 -2.346238 0.000000 0.000000 0.000000 
-19.603912 82.302444 -36.233997 179.992082 -14.115811 -179.856311 -3.838904 0.667400 14.488429 2.699527 0.420092 -22.796241 3.611343 2.829609 28.973143 2.195550 -7.568767 -8.988654 0.000000 0.000000 0.000000 0.301173 0.500189 15.550210 -3.089220 -2.591016 -24.860575 -0.433731 6.109795 29.922458 12.051800 3.500912 -6.542800 0.000000 0.000000 0.000000 2.647786 1.787817 4.517424 1.182776 -0.858644 -5.736747 2.092571 -3.674489 6.660856 0.022724 -0.114613 0.028720 2.142205 -2.895060 7.947933 -7.852249 4.477945 -15.590822 0.000000 0.000000 0.000000 4.063492 -2.124756 5.306660 12.030567 8.726132 -7.223562 44.669055 -36.332136 -63.147892 3.802326 -42.082390 0.617009 0.000000 0.000000 0.000000 -0.621585 -0.644073 4.659035 27.107423 0.830014 -1.223628 42.493165 12.973352 -15.007859 1.763870 31.042820 -2.042636 0.000000 0.000000 0.000000 
